<svg width="134" height="40" viewBox="0 0 134 40" fill="none" xmlns="http://www.w3.org/2000/svg">
<path d="M11.1315 7.38858V10.7772H11.3319C12.1009 10.7772 13.2766 10.9834 14.0486 11.2545C14.1871 11.3017 14.358 11.3606 14.4287 11.3871C14.5024 11.4107 14.6762 11.4814 14.8177 11.5433C16.8066 12.4184 18.3889 13.9212 19.3849 15.8748C19.5882 16.2755 19.877 16.9945 19.9713 17.3481C20.0007 17.4541 20.0449 17.6133 20.0685 17.7017C20.3632 18.7801 20.4339 20.2534 20.2482 21.3996C20.1657 21.9241 20.1333 22.0685 19.9772 22.6372C19.8681 23.0291 19.5558 23.8129 19.3436 24.2107C18.4891 25.8313 17.2575 27.119 15.7134 28.0059C14.358 28.7867 12.7403 29.2199 11.1904 29.2199C10.4567 29.2199 9.87035 29.0873 9.2221 28.775C8.15838 28.2652 7.35396 27.337 6.97679 26.1878C6.69687 25.3422 6.70276 24.2873 6.99153 23.4328C7.0593 23.2295 7.28324 22.758 7.39816 22.5783C8.1849 21.3289 9.39889 20.5982 10.8751 20.4862L11.1315 20.4656L11.1256 17.0888L11.1168 13.709L10.7632 13.7179C10.2534 13.7267 9.25156 13.8416 8.89208 13.93C8.83609 13.9448 8.67108 13.9831 8.52375 14.0184C5.79226 14.6608 3.36427 16.3757 1.78784 18.7772C1.47256 19.2545 1.03941 20.0825 0.806628 20.6482C0.234989 22.0361 -0.041991 23.6007 0.00515454 25.1713C0.0346205 26.1937 0.140698 26.8862 0.435357 27.9705C0.641619 28.7366 1.10423 29.8004 1.5639 30.5635C2.39779 31.9514 3.57642 33.1978 4.89355 34.0818C5.4151 34.4324 6.21068 34.8715 6.6674 35.063C6.73223 35.0895 6.85304 35.1425 6.93259 35.175C7.20663 35.2928 8.10828 35.5816 8.47956 35.6729C9.33407 35.8792 10.3389 36 11.1875 36C11.5293 36 12.6991 35.9293 12.87 35.8969C12.9112 35.891 13.0703 35.8703 13.2236 35.8527C13.9425 35.7672 14.6497 35.6199 15.684 35.337C16.0847 35.2309 16.9009 34.9304 17.4667 34.6888C18.7013 34.1554 19.8711 33.463 21.0026 32.5878C21.9337 31.8718 23.1477 30.6313 23.9374 29.5912C24.5532 28.7808 25.2663 27.5816 25.6847 26.6475C25.7201 26.5738 25.7731 26.456 25.8026 26.3853C26.7661 24.2431 27.2582 21.4762 27.102 19.0807C27.0608 18.4442 26.9341 17.351 26.8781 17.1654C26.8692 17.1389 26.8516 17.0475 26.8368 16.9591C26.7779 16.6144 26.6188 15.9455 26.4803 15.477C25.9028 13.5234 24.8921 11.5904 23.6133 9.99632C21.9573 7.93959 19.8033 6.30718 17.3635 5.26703C16.4678 4.88692 15.1948 4.49208 14.3138 4.32707C14.2077 4.30644 14.0633 4.27698 13.9897 4.26519C13.3621 4.13849 11.9713 4 11.3466 4H11.1315V7.38858Z" fill="#6941C7"/>
<path d="M129.154 14.8667C127.794 14.8667 126.807 13.88 126.807 12.52C126.807 11.16 127.794 10.1733 129.154 10.1733C130.514 10.1733 131.501 11.16 131.501 12.52C131.501 13.88 130.514 14.8667 129.154 14.8667ZM127.341 29.48V16.3067H130.941V29.48H127.341Z" fill="#101827"/>
<path d="M116.61 29.8266C113.57 29.8266 110.157 27.5866 110.157 23.0533C110.157 18.8133 113.09 15.96 117.277 15.96C121.41 15.96 124.29 18.7333 124.29 23.0266V29.48H120.983V27.1066C120.237 28.8933 118.61 29.8266 116.61 29.8266ZM117.25 26.4666C119.303 26.4666 120.69 25 120.69 22.8933C120.69 20.7866 119.303 19.32 117.25 19.32C115.197 19.32 113.81 20.7866 113.81 22.8933C113.81 25 115.197 26.4666 117.25 26.4666Z" fill="#101827"/>
<path d="M106.236 29.8266C104.876 29.8266 103.889 28.8133 103.889 27.48C103.889 26.1466 104.876 25.1333 106.236 25.1333C107.569 25.1333 108.556 26.1466 108.556 27.48C108.556 28.8133 107.569 29.8266 106.236 29.8266Z" fill="#101827"/>
<path d="M95.2708 29.8266C91.1108 29.8266 88.1774 26.8933 88.1774 22.8933C88.1774 18.8933 91.1108 15.96 95.2708 15.96C99.4308 15.96 102.284 18.8933 102.284 22.8933V24.0133H91.9374C92.3108 25.7466 93.6174 26.6 95.2708 26.6C96.5508 26.6 97.4841 26.28 98.0708 25.48H101.857C100.924 28.0933 98.4708 29.8266 95.2708 29.8266ZM92.0174 21.48H98.5508C98.0708 19.9333 96.8174 19.1866 95.2708 19.1866C93.6974 19.1866 92.4708 19.96 92.0174 21.48Z" fill="#101827"/>
<path d="M74.3804 29.48V26.4933L81.4737 19.4533H74.7804V16.3066H86.247V19.2933L79.1804 26.3333H86.5137V29.48H74.3804Z" fill="#101827"/>
<path d="M68.0437 29.48V10.5466H71.6437V29.48H68.0437Z" fill="#101827"/>
<path d="M58.4479 29.8266C54.2879 29.8266 51.3546 26.8933 51.3546 22.8933C51.3546 18.8933 54.2879 15.96 58.4479 15.96C62.6079 15.96 65.5412 18.8933 65.5412 22.8933C65.5412 26.8933 62.6079 29.8266 58.4479 29.8266ZM58.4479 26.4666C60.5012 26.4666 61.8879 25 61.8879 22.8933C61.8879 20.7866 60.5012 19.32 58.4479 19.32C56.3946 19.32 55.0079 20.7866 55.0079 22.8933C55.0079 25 56.3946 26.4666 58.4479 26.4666Z" fill="#101827"/>
<path d="M42.2506 29.8266C38.0639 29.8266 35.1306 26.9733 35.1306 22.7333C35.1306 18.2 38.5172 15.96 41.6106 15.96C43.3439 15.96 44.7839 16.6533 45.6639 17.9866V10.5466H49.2639V22.76C49.2639 27.1333 46.3306 29.8266 42.2506 29.8266ZM42.2239 26.4666C44.2772 26.4666 45.6639 25 45.6639 22.8933C45.6639 20.7866 44.2772 19.32 42.2239 19.32C40.1706 19.32 38.7839 20.7866 38.7839 22.8933C38.7839 25 40.1706 26.4666 42.2239 26.4666Z" fill="#101827"/>
</svg>
